<svg width="16" height="16" viewBox="0 0 16 16" fill="none" xmlns="http://www.w3.org/2000/svg">
<path d="M7.99996 3.90588C9.5529 3.90588 10.8235 5.17647 10.8235 6.72941C10.8235 8.28235 9.5529 9.55294 7.99996 9.55294C6.44702 9.55294 5.17643 8.28235 5.17643 6.72941C5.17643 5.17647 6.44702 3.90588 7.99996 3.90588ZM7.99996 8.61177C9.03525 8.61177 9.88231 7.76471 9.88231 6.72941C9.88231 5.69412 9.03525 4.84706 7.99996 4.84706C6.96466 4.84706 6.1176 5.69412 6.1176 6.72941C6.1176 7.76471 6.96466 8.61177 7.99996 8.61177Z" fill="#1A201E"/>
<path d="M8.00003 0.611816C11.3883 0.611816 14.1177 3.34123 14.1177 6.72946C14.1177 12.1883 8.00003 15.6706 8.00003 15.6706C8.00003 15.6706 1.88238 12.1883 1.88238 6.72946C1.88238 3.34123 4.61179 0.611816 8.00003 0.611816ZM8.00003 14.5412C9.36473 13.6471 13.1765 10.7295 13.1765 6.72946C13.1765 3.85887 10.8706 1.55299 8.00003 1.55299C5.12944 1.55299 2.82356 3.85887 2.82356 6.72946C2.82356 10.7295 6.63532 13.6471 8.00003 14.5412Z" fill="#1A201E"/>
</svg>
